<svg width="56" height="56" viewBox="0 0 56 56" fill="none" xmlns="http://www.w3.org/2000/svg">
<path d="M49.7778 9.90578V9.33333C49.7778 6.85798 48.7944 4.48401 47.0441 2.73367C45.2938 0.983331 42.9198 0 40.4444 0C37.9691 0 35.5951 0.983331 33.8448 2.73367C32.0944 4.48401 31.1111 6.85798 31.1111 9.33333H24.8889C24.8889 6.85798 23.9056 4.48401 22.1552 2.73367C20.4049 0.983331 18.0309 0 15.5556 0C13.0802 0 10.7062 0.983331 8.95589 2.73367C7.20555 4.48401 6.22222 6.85798 6.22222 9.33333V9.90578C4.40873 10.5469 2.83762 11.7327 1.72383 13.3009C0.610039 14.8692 0.00797367 16.7432 0 18.6667V46.6667C0 51.8124 4.18756 56 9.33333 56H46.6667C51.8124 56 56 51.8124 56 46.6667V18.6667C55.992 16.7432 55.39 14.8692 54.2762 13.3009C53.1624 11.7327 51.5913 10.5469 49.7778 9.90578ZM37.3333 9.33333C37.3333 8.50822 37.6611 7.71689 38.2446 7.13345C38.828 6.55 39.6193 6.22222 40.4444 6.22222C41.2696 6.22222 42.0609 6.55 42.6443 7.13345C43.2278 7.71689 43.5556 8.50822 43.5556 9.33333V15.5556C43.5556 16.3807 43.2278 17.172 42.6443 17.7554C42.0609 18.3389 41.2696 18.6667 40.4444 18.6667C39.6193 18.6667 38.828 18.3389 38.2446 17.7554C37.6611 17.172 37.3333 16.3807 37.3333 15.5556V9.33333ZM12.4444 9.33333C12.4444 8.50822 12.7722 7.71689 13.3557 7.13345C13.9391 6.55 14.7304 6.22222 15.5556 6.22222C16.3807 6.22222 17.172 6.55 17.7554 7.13345C18.3389 7.71689 18.6667 8.50822 18.6667 9.33333V15.5556C18.6667 16.3807 18.3389 17.172 17.7554 17.7554C17.172 18.3389 16.3807 18.6667 15.5556 18.6667C14.7304 18.6667 13.9391 18.3389 13.3557 17.7554C12.7722 17.172 12.4444 16.3807 12.4444 15.5556V9.33333ZM49.7778 46.6667C49.7778 48.3809 48.384 49.7778 46.6667 49.7778H9.33333C7.616 49.7778 6.22222 48.3809 6.22222 46.6667V28H49.7778V46.6667Z" fill="#CC4B2C"/>
</svg>
