<svg width="25" height="25" viewBox="0 0 25 25" fill="none" xmlns="http://www.w3.org/2000/svg">
<path d="M13.92 2.23071C14.4504 2.23083 14.959 2.44161 15.334 2.81671L19.748 7.23071C20.1231 7.6057 20.3339 8.11432 20.334 8.64471V20.2307C20.334 20.7611 20.1233 21.2699 19.7482 21.6449C19.3731 22.02 18.8644 22.2307 18.334 22.2307H6.33398C5.80355 22.2307 5.29484 22.02 4.91977 21.6449C4.5447 21.2699 4.33398 20.7611 4.33398 20.2307V4.23071C4.33398 3.70028 4.5447 3.19157 4.91977 2.8165C5.29484 2.44143 5.80355 2.23071 6.33398 2.23071H13.92ZM12.334 4.23071H6.33398V20.2307H18.334V10.2307H13.834C13.4362 10.2307 13.0546 10.0727 12.7733 9.79137C12.492 9.51007 12.334 9.12854 12.334 8.73071V4.23071ZM15.334 14.2307C15.5992 14.2307 15.8536 14.3361 16.0411 14.5236C16.2286 14.7111 16.334 14.9655 16.334 15.2307C16.334 15.4959 16.2286 15.7503 16.0411 15.9378C15.8536 16.1254 15.5992 16.2307 15.334 16.2307H9.33398C9.06877 16.2307 8.81441 16.1254 8.62688 15.9378C8.43934 15.7503 8.33398 15.4959 8.33398 15.2307C8.33398 14.9655 8.43934 14.7111 8.62688 14.5236C8.81441 14.3361 9.06877 14.2307 9.33398 14.2307H15.334ZM10.334 10.2307C10.5992 10.2307 10.8536 10.3361 11.0411 10.5236C11.2286 10.7111 11.334 10.9655 11.334 11.2307C11.334 11.4959 11.2286 11.7503 11.0411 11.9378C10.8536 12.1254 10.5992 12.2307 10.334 12.2307H9.33398C9.06877 12.2307 8.81441 12.1254 8.62688 11.9378C8.43934 11.7503 8.33398 11.4959 8.33398 11.2307C8.33398 10.9655 8.43934 10.7111 8.62688 10.5236C8.81441 10.3361 9.06877 10.2307 9.33398 10.2307H10.334ZM14.334 4.64471V8.23071H17.92L14.334 4.64471Z" fill="#54423D"/>
</svg>
