<svg width="77" height="31" viewBox="0 0 77 31" fill="none" xmlns="http://www.w3.org/2000/svg">
<path d="M-0.00615373 5.40923V0.092305H6.64V5.40923H-0.00615373ZM-0.00615373 8.06769H6.64V30H-0.00615373V8.06769Z" fill="#CC4B2C"/>
<path d="M8.9681 24.1431C8.9681 19.2 12.8727 17.3723 17.6081 17.0815C21.5127 16.8323 24.2958 17.0815 24.2543 15.2123C24.2127 13.9662 23.5481 12.3877 20.5158 12.3877C17.525 12.3877 16.5281 13.7169 16.1958 15.3785H9.63272C10.3804 9.52154 15.7804 7.40307 20.6819 7.40307C25.8743 7.40307 30.9004 9.06461 30.9004 17.8708V30H24.2543V28.8785C24.2543 28.2138 24.4204 27.6323 24.7112 27.0508C25.0435 26.3446 25.4173 25.68 24.9604 25.4723C24.4204 25.2231 24.2543 25.7215 24.0881 26.0123C22.7173 28.7123 20.2666 30.6646 16.6112 30.6646C12.1666 30.6646 8.9681 27.7985 8.9681 24.1431ZM24.2543 19.3662C23.1743 20.4877 21.6373 20.5708 18.5219 20.9446C16.985 21.1108 15.6143 21.8169 15.6143 23.6862C15.6143 25.5138 17.3589 26.3031 19.145 26.0123C21.1389 25.68 24.2127 23.8938 24.2543 19.3662ZM60.2337 7.40307C63.8891 7.40307 66.7968 9.48 66.7968 16.3754V30H60.1506V17.7046C60.1506 14.3815 59.3614 13.0523 57.2429 13.0523C55.3322 13.0523 53.8368 15.6277 53.8368 19.5323V30H47.1906V18.2031C47.1906 14.88 46.7752 13.0523 44.8229 13.0523C42.3722 13.0523 40.8768 16.2092 40.8768 20.4462V30H34.2306V8.06769H40.8768V8.89846C40.8768 9.72923 40.6275 10.3523 40.2537 11.0169C39.9214 11.64 39.7137 12.3046 40.2122 12.4708C40.7106 12.6369 40.9183 12.2215 41.0429 11.9308C42.2891 9.27231 44.1583 7.40307 47.0245 7.40307C49.8075 7.40307 51.5106 9.06461 52.1752 11.5154C52.2999 11.9308 52.5906 12.1385 53.006 12.1385C53.4214 12.1385 53.6291 12.0138 53.8368 11.5985C55.166 8.89846 57.6583 7.40307 60.2337 7.40307ZM69.4659 30V22.6892H76.7767V30H69.4659Z" fill="#54423D"/>
</svg>
