<svg width="25" height="25" viewBox="0 0 25 25" fill="none" xmlns="http://www.w3.org/2000/svg">
<path d="M7.27441 5.23074C7.27415 5.76117 7.06318 6.26977 6.68792 6.64466C6.31266 7.01954 5.80385 7.23 5.27341 7.22974C4.74298 7.22947 4.23438 7.0185 3.85949 6.64324C3.48461 6.26798 3.27415 5.75917 3.27441 5.22874C3.27468 4.6983 3.48565 4.1897 3.86091 3.81482C4.23617 3.43993 4.74498 3.22947 5.27541 3.22974C5.80585 3.23 6.31445 3.44097 6.68934 3.81623C7.06422 4.19149 7.27468 4.7003 7.27441 5.23074ZM7.33441 8.71074H3.33441V21.2307H7.33441V8.71074ZM13.6544 8.71074H9.67441V21.2307H13.6144V14.6607C13.6144 11.0007 18.3844 10.6607 18.3844 14.6607V21.2307H22.3344V13.3007C22.3344 7.13074 15.2744 7.36074 13.6144 10.3907L13.6544 8.71074Z" fill="#54423D"/>
</svg>
